<?xml version="1.0" encoding="UTF-8"?>
<!DOCTYPE svg PUBLIC "-//W3C//DTD SVG 1.0//EN" "http://www.w3.org/TR/2001/REC-SVG-20010904/DTD/svg10.dtd">
<!-- Creator: CorelDRAW X7 -->
<svg xmlns="http://www.w3.org/2000/svg" xml:space="preserve" width="177.597mm" height="89.1234mm" version="1.0" style="shape-rendering:geometricPrecision; text-rendering:geometricPrecision; image-rendering:optimizeQuality; fill-rule:evenodd; clip-rule:evenodd"
viewBox="0 0 17760 8912"
 xmlns:xlink="http://www.w3.org/1999/xlink">
 <defs>
  <style type="text/css">
   <![CDATA[
    .str0 {stroke:#2B2A29;stroke-width:7.62}
    .fil2 {fill:none}
    .fil0 {fill:#2B2A29}
    .fil1 {fill:#FFED00}
   ]]>
  </style>
 </defs>
 <g id="Ebene_x0020_1">
  <metadata id="CorelCorpID_0Corel-Layer"/>
  <g id="_2097072719568">
   <path class="fil0" d="M717 7304l-712 0 0 453c-3,57 -5,119 -5,186 0,68 2,130 5,186l0 453 226 0 5 0 481 0 2482 0c1193,0 1790,-734 1790,-2201l0 -592c0,-1468 -597,-2202 -1790,-2202l-1427 0c-355,0 -606,-91 -753,-272 -147,-182 -221,-399 -221,-651l0 -462c0,-261 74,-480 221,-657 147,-178 398,-267 753,-267l623 0c11,0 22,0 33,-2l2102 0 0 -1273 -2098 0c-12,-2 -24,-3 -37,-3l-605 0c-1193,0 -1790,734 -1790,2202l0 462c0,1467 597,2201 1790,2201l1427 0c355,0 606,91 753,273 147,181 221,398 221,651l0 592c0,260 -74,479 -221,657 -147,177 -398,266 -753,266l-2500 0 0 0zm16630 -6028l413 0 0 -637 0 0 0 -636 -413 0 0 1273z"/>
   <path class="fil0" d="M11843 4474l0 17 0 3629 289 0 0 -2811c0,-509 194,-889 582,-1140 389,-251 951,-377 1687,-377l684 0 33 1 92 0 0 -1085 0 -82 0 -436 0 -149 0 -312 1049 0 0 312 0 91 0 58 0 518 0 1085 324 0 8 0 349 0 0 885 -349 0 -8 0 -324 0 0 1937 0 689c0,235 18,386 55,454 36,67 96,119 179,160 83,39 202,59 357,59 115,0 267,-10 454,-32l-303 395 -309 404 -30 0c-379,0 -673,-47 -884,-142 -208,-95 -355,-218 -441,-372 -85,-155 -127,-479 -127,-973l0 -583 0 -1996 -119 0 -21 0 -669 0c-432,0 -733,55 -902,166 -170,111 -254,266 -254,465l0 3006 0 52 0 8 0 400 -435 0 -4 0c-38,3 -79,4 -122,4 -44,0 -84,-1 -122,-4l-1 0 -1015 0 -157 0 -313 0 0 -334 0 -126 0 -298c-442,450 -1057,729 -1737,729 -567,0 -1088,-194 -1502,-519l7 -21 113 -380 11 10 4 4 17 15 9 7 9 8 25 22 3 2 7 6 18 14 6 5 12 10 19 14 16 12 2 2 3 2 33 24 2 1 0 0 1 1 32 22 5 4 2 1 7 5 26 17 17 11 7 4 19 12 7 5 13 7 21 12 2 2 15 8 3 2 20 11 12 7 9 5 20 10 15 8 6 3 38 19 1 0 3 2 36 17 6 2 1 1 3 1 40 18 1 0 21 9 21 9 5 1 17 7 23 8 6 3 1 0 37 13 10 4 13 4 22 7 13 4 10 3 32 10 6 2 8 2 23 6 8 2 21 6 30 7 8 2 2 0 6 1 37 9 4 1 1 0 4 1 41 7 2 1 3 0 20 4 24 4 7 1 3 0 38 6 10 1 15 2 24 2 13 2 11 1c30,3 61,5 91,7l2 0 6 0 38 1 8 1 3 0 4 0 46 0 42 0 20 -1 6 0 34 -1 4 0 48 -3 7 -1 42 -4 7 0 10 -1 32 -4 9 -1 9 -1 33 -5 9 -1 7 -1 39 -7 5 -1 6 -1 32 -6 12 -2 8 -2 36 -8 6 -1 3 -1 32 -7 7 -2 15 -4 39 -11 2 0 0 0 31 -10 7 -1 21 -7 3 -1 31 -10 4 -1 10 -4 34 -12 5 -2 32 -12 30 -12 7 -3 22 -9 7 -3 30 -13 2 -1 17 -7 33 -16 2 -1 4 -2 29 -14 3 -2 20 -10 6 -3 26 -14 2 -1 28 -16 3 -1 20 -12 5 -3 27 -16 1 0 26 -17 5 -2 20 -13 2 -2 27 -18 3 -2 23 -16 7 -4 17 -12 2 -2 26 -19 19 -14 13 -10 18 -14 1 -1 24 -20 8 -6 7 -5 25 -22 6 -5 3 -3 24 -21 23 -21 0 0 22 -21 1 -1 23 -22 3 -3 14 -14 18 -18 29 -30 4 -5 20 -22 21 -24 18 -20 5 -6c26,-32 52,-64 77,-98l19 -26 16 -22 5 -8 15 -22 18 -27c208,-321 330,-704 330,-1115 0,-412 -121,-795 -330,-1116l-18 -27 -15 -22 -5 -7 -16 -23 -19 -26c-25,-33 -51,-66 -77,-98l-5 -5 -18 -21 -21 -24 -20 -22 -4 -4 -29 -30 -18 -19 -14 -14 -3 -3 -23 -22 -1 -1 -22 -21 0 0 -23 -21 -24 -21 -3 -3 -6 -5 -25 -21 -7 -6 -8 -6 -24 -20 -1 0 -18 -15 -13 -10 -19 -14 -26 -19 -2 -2 -17 -11 -7 -5 -23 -16 -3 -2 -27 -18 -2 -1 -20 -13 -5 -3 -26 -16 -1 -1 -27 -16 -5 -3 -20 -11 -3 -2 -28 -16 -2 -1 -26 -14 -6 -3 -20 -10 -3 -1 -29 -15 -4 -2 -2 -1 -33 -15 -17 -8 -2 -1 -30 -13 -7 -3 -22 -9 -7 -3 -30 -12 -32 -12 -5 -2 -34 -12 -10 -3 -4 -1 -31 -11 -3 -1 -21 -6 -7 -2 -31 -9 0 0 -2 -1 -39 -10 -15 -4 -7 -2 -32 -8 -3 -1 -6 -1 -36 -8 -8 -1 -12 -3 -32 -6 -6 -1 -5 -1 -39 -6 -7 -2 -9 -1 -33 -5 -9 -1 -9 -1 -32 -3 -10 -2 -7 0 -42 -4 -7 0 -48 -3 -4 -1 -34 -1 -6 0 -20 -1 -42 0c-1132,0 -2050,918 -2050,2050l1 46 0 4 0 3 0 7 2 40 0 5 3 52 1 2 4 46 0 4 2 14 2 25 2 13 0 3 6 43 1 5 1 8 6 36 1 6 2 6 7 40 1 5 1 3 10 47 0 0 9 37 7 26 2 8 6 23 1 4 6 19 7 23 2 6 5 16 7 23 3 9 5 14 8 22 4 11 4 12 8 22 8 20 1 2 9 22 1 1 8 21 10 21 9 22 10 21 10 20 0 2 11 21 4 8 17 34 0 0 11 21 10 17 4 7 20 35 1 2 12 20 0 1 11 18 1 1 13 20 0 1 12 19 13 20 13 19 14 19 1 2 12 17 14 19 14 19 14 19c18,23 37,47 57,70l2 2 15 18c14,17 29,33 43,49l-381 89 -37 9c-318,-411 -507,-926 -507,-1486 0,-1344 1089,-2434 2433,-2434 680,0 1295,280 1737,730l0 -118 0 -17 0 -443 767 0 0 443z"/>
   <path class="fil1" d="M9339 4263c1132,0 2050,918 2050,2050 0,1132 -918,2049 -2050,2049 -531,0 -1016,-202 -1380,-534l51 -170 -179 42c-336,-365 -542,-852 -542,-1387 0,-1132 918,-2050 2050,-2050z"/>
   <path class="fil0" d="M6048 1716l-285 0 -382 0 0 312 0 148 0 436 0 83 0 1085 -119 0 -8 0 0 0 -311 0 0 879 259 0c20,4 39,6 60,6l119 0 0 1995 0 584c0,494 42,818 127,972 86,154 233,277 441,372 211,96 504,142 884,142 221,0 473,-23 753,-67l-304 -321 -362 -382c-106,-7 -192,-26 -256,-56 -84,-40 -143,-93 -179,-160 -38,-67 -55,-218 -55,-454l0 -689 0 -1936 331 0 312 0 0 -312 0 -262 0 -311 -312 0 -331 0 0 -1085 0 -519 0 -58 0 -90 0 -312 -382 0z"/>
   <polygon class="fil0" points="6973,7949 7944,7721 7635,8648 "/>
   <polygon class="fil0" points="17345,7951 17697,8912 16734,8751 "/>
   <path class="fil2 str0" d="M8321 5875c666,457 1332,421 1999,0l0 1219 -1999 0c0,-406 0,-812 0,-1219z"/>
   <g>
    <polygon class="fil0" points="14969,3 14775,3 14775,1276 14969,1276 "/>
    <polygon class="fil0" points="9056,3 8862,3 8862,1276 9056,1276 "/>
    <polygon class="fil0" points="7118,3 6924,3 6924,1276 7118,1276 "/>
    <polygon class="fil0" points="8572,3 8378,3 8378,1276 8572,1276 "/>
    <polygon class="fil0" points="13321,3 13127,3 13127,1276 13321,1276 "/>
    <polygon class="fil0" points="11770,3 11576,3 11576,1276 11770,1276 "/>
    <polygon class="fil0" points="9638,3 9444,3 9444,1276 9638,1276 "/>
    <polygon class="fil0" points="15890,3 15696,3 15696,1276 15890,1276 "/>
    <polygon class="fil0" points="14048,3 13854,3 13854,1276 14048,1276 "/>
    <polygon class="fil0" points="15357,3 15163,3 15163,1276 15357,1276 "/>
    <polygon class="fil0" points="16617,3 16471,3 16471,1276 16617,1276 "/>
    <polygon class="fil0" points="15551,3 15405,3 15405,1276 15551,1276 "/>
    <polygon class="fil0" points="10995,3 10898,3 10898,1276 10995,1276 "/>
    <polygon class="fil0" points="14436,3 14339,3 14339,1276 14436,1276 "/>
    <polygon class="fil0" points="10025,3 9929,3 9929,1276 10025,1276 "/>
    <polygon class="fil0" points="10462,3 10365,3 10365,1276 10462,1276 "/>
    <polygon class="fil0" points="5130,3 5034,3 5034,1276 5130,1276 "/>
    <polygon class="fil0" points="12061,3 11964,3 11964,1276 12061,1276 "/>
    <polygon class="fil0" points="7360,3 7263,3 7263,1276 7360,1276 "/>
    <polygon class="fil0" points="16035,3 15938,3 15938,1276 16035,1276 "/>
    <polygon class="fil0" points="16181,3 16084,3 16084,1276 16181,1276 "/>
    <polygon class="fil0" points="5954,3 5857,3 5857,1276 5954,1276 "/>
    <polygon class="fil0" points="8038,3 7941,3 7941,1276 8038,1276 "/>
    <polygon class="fil0" points="6294,3 6197,3 6197,1276 6294,1276 "/>
    <polygon class="fil0" points="12740,3 12643,3 12643,1276 12740,1276 "/>
    <polygon class="fil0" points="16326,3 16229,3 16229,1276 16326,1276 "/>
    <polygon class="fil0" points="16859,1276 16859,3 16762,3 16762,1276 "/>
    <polygon class="fil0" points="7505,3 7457,3 7457,1276 7505,1276 "/>
    <polygon class="fil0" points="5373,3 5324,3 5324,1276 5373,1276 "/>
    <polygon class="fil0" points="5615,3 5567,3 5567,1276 5615,1276 "/>
    <polygon class="fil0" points="5809,3 5760,3 5760,1276 5809,1276 "/>
    <polygon class="fil0" points="6148,3 6100,3 6100,1276 6148,1276 "/>
    <polygon class="fil0" points="6439,3 6391,3 6391,1276 6439,1276 "/>
    <polygon class="fil0" points="6681,3 6633,3 6633,1276 6681,1276 "/>
    <polygon class="fil0" points="11479,3 11431,3 11431,1276 11479,1276 "/>
    <polygon class="fil0" points="7214,3 7166,3 7166,1276 7214,1276 "/>
    <polygon class="fil0" points="9880,3 9832,3 9832,1276 9880,1276 "/>
    <polygon class="fil0" points="7748,3 7699,3 7699,1276 7748,1276 "/>
    <polygon class="fil0" points="9347,3 9298,3 9298,1276 9347,1276 "/>
    <polygon class="fil0" points="8281,3 8232,3 8232,1276 8281,1276 "/>
    <polygon class="fil0" points="11916,3 11867,3 11867,1276 11916,1276 "/>
    <polygon class="fil0" points="8814,3 8765,3 8765,1276 8814,1276 "/>
    <polygon class="fil0" points="13757,3 13709,3 13709,1276 13757,1276 "/>
    <polygon class="fil0" points="14290,3 14242,3 14242,1276 14290,1276 "/>
    <polygon class="fil0" points="13467,3 13418,3 13418,1276 13467,1276 "/>
    <polygon class="fil0" points="9202,3 9153,3 9153,1276 9202,1276 "/>
    <polygon class="fil0" points="9735,3 9686,3 9686,1276 9735,1276 "/>
    <polygon class="fil0" points="5227,3 5179,3 5179,1276 5227,1276 "/>
    <polygon class="fil0" points="10171,3 10122,3 10122,1276 10171,1276 "/>
    <polygon class="fil0" points="10607,3 10559,3 10559,1276 10607,1276 "/>
    <polygon class="fil0" points="10704,3 10656,3 10656,1276 10704,1276 "/>
    <polygon class="fil0" points="11140,3 11092,3 11092,1276 11140,1276 "/>
    <polygon class="fil0" points="11237,3 11189,3 11189,1276 11237,1276 "/>
    <polygon class="fil0" points="12400,3 12352,3 12352,1276 12400,1276 "/>
    <polygon class="fil0" points="12546,3 12497,3 12497,1276 12546,1276 "/>
    <polygon class="fil0" points="12836,3 12788,3 12788,1276 12836,1276 "/>
    <polygon class="fil0" points="14145,3 14097,3 14097,1276 14145,1276 "/>
    <polygon class="fil0" points="6827,3 6778,3 6778,1276 6827,1276 "/>
    <polygon class="fil0" points="15648,3 15599,3 15599,1276 15648,1276 "/>
    <polygon class="fil0" points="13612,3 13563,3 13563,1276 13612,1276 "/>
    <polygon class="fil0" points="14678,3 14630,3 14630,1276 14678,1276 "/>
    <polygon class="fil0" points="8135,3 8087,3 8087,1276 8135,1276 "/>
    <polygon class="fil0" points="15114,3 15066,3 15066,1276 15114,1276 "/>
    <polygon class="fil0" points="8668,3 8620,3 8620,1276 8668,1276 "/>
    <polygon class="fil0" points="16714,3 16665,3 16665,1276 16714,1276 "/>
    <polygon class="fil0" points="12303,3 12255,3 12255,1276 12303,1276 "/>
    <polygon class="fil0" points="13079,3 13030,3 13030,1276 13079,1276 "/>
   </g>
  </g>
 </g>
</svg>
